<svg xmlns:xlink="http://www.w3.org/1999/xlink" xmlns="http://www.w3.org/2000/svg" style="max-height: 500px" version="1.1" xml:space="preserve" viewBox="11748.52 12545.5 2481.82 1445.91">
 <defs>
  <style type="text/css">
   
    .fil2 {fill:#FEFEFE}
    .fil1 {fill:#E3E3E3}
    .fil0 {fill:#EF7F1A}
    .fil4 {fill:#E31E24}
    .fil3 {fill:#007342;fill-rule:nonzero}
   
  </style>
 </defs>
 <g id="Layer_x0020_1">
  <metadata id="CorelCorpID_0Corel-Layer"/>
  <path d="M12992.1 12698.8c324.24,0 587.18,236.38 587.18,527.85 0,291.47 -262.94,527.85 -587.18,527.85 -324.23,0 -587.17,-236.38 -587.17,-527.85 0,-291.47 262.94,-527.85 587.17,-527.85z" class="fil0"/>
  <path d="M12992.1 12732.61c303.47,0 549.58,221.23 549.58,494.04 0,272.81 -246.11,494.04 -549.58,494.04 -303.47,0 -549.57,-221.23 -549.57,-494.04 0,-272.81 246.1,-494.04 549.57,-494.04z" class="fil1"/>
  <polygon points="12987.66,12743.05 13030.31,12812.24 13071.87,12748.38 13101.95,12822.71 13154.12,12765.48 13170.89,12843.13 13232.38,12793.95 13235.43,12873 13304.72,12833.06 13293.97,12911.57 13369.36,12881.87 13345.09,12957.9 13424.71,12939.17 13387.51,13010.85 13469.41,13003.54 13420.19,13069.11 13502.36,13073.41 13442.34,13131.25 13522.75,13147.05 13453.4,13195.74 13530.06,13222.66 13453.1,13260.99 13524.14,13298.36 13441.44,13325.4 13505.11,13372.29 13418.73,13387.37 13473.44,13442.64 13385.51,13445.39 13429.93,13507.67 13342.6,13498.02 13375.64,13565.79 13291.06,13543.97 13311.9,13615.55 13232.16,13582.1 13240.29,13655.73 13167.35,13611.48 13162.57,13685.35 13098.23,13631.39 13080.65,13703.67 13026.49,13641.33 12996.54,13710.25 12953.9,13641.06 12912.33,13704.92 12882.26,13630.59 12830.09,13687.82 12813.32,13610.17 12751.83,13659.35 12748.78,13580.3 12679.49,13620.24 12690.23,13541.73 12614.85,13571.43 12639.12,13495.4 12559.49,13514.13 12596.7,13442.45 12514.79,13449.76 12564.01,13384.19 12481.85,13379.89 12541.87,13322.05 12461.46,13306.24 12530.81,13257.56 12454.14,13230.64 12531.11,13192.31 12460.07,13154.94 12542.76,13127.9 12479.1,13081 12565.48,13065.93 12510.76,13010.65 12598.7,13007.91 12554.28,12945.62 12641.61,12955.28 12608.57,12887.51 12693.15,12909.33 12672.31,12837.75 12752.05,12871.2 12743.92,12797.57 12816.86,12841.82 12821.64,12767.95 12885.98,12821.91 12903.56,12749.63 12957.72,12811.97" class="fil2"/>
  <path d="M11757.05 13699.65l507.47 0 -0.76 223.97 52.05 1.26 82.42 35.62 0 28.06 -639.28 2.85 -10.43 -28.73 222.57 -119.16 -220.13 -117.18 6.09 -26.69zm58.62 25.99l218.84 117.82 -216.06 118.52 517.5 -2.38 -91.22 -35.47 0.04 -12.78 0.63 -185.71 -429.73 0z" class="fil0"/>
  <polygon points="12233.84,13632.33 13743.01,13632.33 13743.01,13926.08 12233.84,13926.08" class="fil0"/>
  <path d="M14221.82 13699.65l-507.47 0 0.76 223.97 -52.05 1.26 -83.31 36 0 27.68 640.17 2.85 10.42 -28.73 -222.56 -119.16 220.13 -117.18 -6.09 -26.69zm-58.62 25.99l-218.84 117.82 216.06 118.52 -517.51 -2.38 91.23 -35.47 -0.04 -12.78 -0.63 -185.71 429.73 0z" class="fil0"/>
  <polygon points="12264.97,13663.02 13711.88,13663.02 13711.88,13895.39 12264.97,13895.39" class="fil2"/>
  <path d="M12361.18 13742.49l0 78.32 36.81 0c2.92,0 5.18,0.85 6.74,2.58 1.59,1.7 2.36,3.86 2.36,6.44 0,2.65 -0.77,4.78 -2.31,6.44 -1.55,1.62 -3.82,2.45 -6.79,2.45l-43.85 0c-3.94,0 -6.8,-1.05 -8.53,-3.16 -1.74,-2.1 -2.59,-5.51 -2.59,-10.19l0 -82.88c0,-4.38 0.83,-7.69 2.48,-9.9 1.65,-2.2 3.82,-3.3 6.51,-3.3 2.72,0 4.93,1.07 6.62,3.25 1.69,2.18 2.55,5.52 2.55,9.95zm116.91 5.44l-40.9 0 0 26.43 37.67 0c2.78,0 4.84,0.75 6.2,2.23 1.36,1.5 2.04,3.46 2.04,5.91 0,2.46 -0.66,4.43 -2,5.99 -1.36,1.53 -3.44,2.3 -6.24,2.3l-37.67 0 0 30.62 42.3 0c2.86,0 5.01,0.8 6.45,2.38 1.46,1.6 2.17,3.71 2.17,6.34 0,2.55 -0.71,4.61 -2.17,6.21 -1.44,1.58 -3.59,2.38 -6.45,2.38l-49.34 0c-3.94,0 -6.8,-1.05 -8.53,-3.16 -1.73,-2.1 -2.59,-5.51 -2.59,-10.19l0 -80.9c0,-3.13 0.4,-5.69 1.17,-7.67 0.77,-1.98 1.98,-3.43 3.63,-4.33 1.65,-0.9 3.76,-1.36 6.32,-1.36l47.94 0c2.91,0 5.06,0.78 6.45,2.31 1.4,1.55 2.11,3.56 2.11,6.06 0,2.56 -0.71,4.59 -2.11,6.14 -1.39,1.53 -3.54,2.31 -6.45,2.31zm81.82 78.59l-4.28 -13.5 -36.44 0 -4.28 13.8c-1.69,5.39 -3.11,9.02 -4.3,10.9 -1.17,1.88 -3.11,2.83 -5.8,2.83 -2.28,0 -4.3,-1 -6.05,-3.01 -1.76,-2 -2.63,-4.28 -2.63,-6.84 0,-1.45 0.21,-2.98 0.6,-4.53 0.42,-1.58 1.09,-3.76 2.03,-6.54l22.93 -69.88c0.65,-2 1.44,-4.4 2.36,-7.21 0.92,-2.83 1.88,-5.16 2.92,-7.02 1.05,-1.85 2.43,-3.35 4.12,-4.5 1.69,-1.16 3.77,-1.73 6.26,-1.73 2.52,0 4.63,0.57 6.32,1.73 1.69,1.15 3.07,2.63 4.11,4.43 1.03,1.8 1.9,3.76 2.63,5.84 0.71,2.08 1.61,4.86 2.72,8.32l23.41 69.44c1.84,5.29 2.76,9.12 2.76,11.53 0,2.48 -0.88,4.76 -2.61,6.84 -1.73,2.08 -3.82,3.13 -6.26,3.13 -1.42,0 -2.65,-0.3 -3.68,-0.93 -1.02,-0.6 -1.87,-1.43 -2.56,-2.48 -0.69,-1.05 -1.44,-2.68 -2.24,-4.86 -0.79,-2.18 -1.48,-4.08 -2.04,-5.76zm-35.96 -29.86l26.8 0 -13.53 -44.4 -13.27 44.4zm79.91 -65.55l23.67 0c6.16,0 11.44,0.68 15.84,2.06 4.4,1.38 8.39,3.93 11.98,7.69 9.33,9.6 14.01,24.18 14.01,43.77 0,6.46 -0.46,12.35 -1.4,17.69 -0.94,5.33 -2.4,10.14 -4.34,14.43 -1.97,4.28 -4.47,8.12 -7.54,11.47 -2.4,2.61 -5.03,4.69 -7.89,6.24 -2.84,1.58 -5.9,2.68 -9.2,3.31 -3.28,0.62 -6.97,0.95 -11.08,0.95l-23.67 0c-3.3,0 -5.8,-0.6 -7.47,-1.8 -1.67,-1.21 -2.76,-2.88 -3.26,-5.06 -0.52,-2.18 -0.77,-5.01 -0.77,-8.47l0 -78.92c0,-4.69 0.88,-8.09 2.63,-10.2 1.75,-2.1 4.59,-3.16 8.49,-3.16zm7.04 17.24l0 73.06 13.75 0c3.03,0 5.39,-0.1 7.1,-0.3 1.71,-0.2 3.48,-0.68 5.32,-1.45 1.83,-0.81 3.42,-1.91 4.76,-3.31 6.07,-6.17 9.12,-16.79 9.12,-31.87 0,-10.62 -1.34,-18.59 -4.01,-23.88 -2.67,-5.28 -5.97,-8.64 -9.87,-10.09 -3.93,-1.43 -8.64,-2.16 -14.19,-2.16l-11.98 0zm117.44 21.07l-12.67 0 -3.24 -20.19 0 -18.12 18.79 0 0 18.12 -2.88 20.19zm36.63 -26.93l0 37.73 35.64 -44.62c1.71,-2.16 3.18,-3.73 4.37,-4.76 1.21,-1.03 2.81,-1.55 4.79,-1.55 2.61,0 4.74,0.92 6.35,2.75 1.61,1.83 2.4,4.06 2.4,6.72 0,3.18 -1.36,6.34 -4.09,9.47l-22.06 25.1 25.42 43.74c1.8,3.04 3.15,5.69 4.05,7.95 0.9,2.28 1.33,4.51 1.33,6.66 0,2.38 -0.79,4.46 -2.35,6.24 -1.57,1.75 -3.7,2.63 -6.39,2.63 -2.53,0 -4.59,-0.65 -6.18,-1.96 -1.58,-1.27 -2.92,-3 -4.03,-5.16 -1.1,-2.15 -2.08,-4.1 -2.94,-5.86l-21.45 -39.63 -14.86 17.08 0 22.25c0,4.51 -0.86,7.84 -2.57,10.02 -1.71,2.18 -3.93,3.26 -6.6,3.26 -1.56,0 -3.04,-0.5 -4.46,-1.48 -1.44,-0.98 -2.53,-2.28 -3.3,-3.96 -0.59,-1.35 -0.92,-2.95 -1.04,-4.76 -0.13,-1.8 -0.19,-4.43 -0.19,-7.86l0 -80c0,-4.38 0.81,-7.69 2.42,-9.9 1.61,-2.2 3.8,-3.3 6.57,-3.3 2.72,0 4.93,1.07 6.62,3.25 1.69,2.18 2.55,5.52 2.55,9.95zm75.13 84.78l0 -84.78c0,-4.38 0.84,-7.69 2.5,-9.9 1.67,-2.2 3.84,-3.3 6.5,-3.3 2.71,0 4.92,1.07 6.61,3.25 1.69,2.18 2.55,5.52 2.55,9.95l0 84.78c0,4.44 -0.86,7.77 -2.55,9.97 -1.69,2.21 -3.9,3.31 -6.61,3.31 -2.61,0 -4.76,-1.1 -6.45,-3.33 -1.69,-2.23 -2.55,-5.54 -2.55,-9.95zm62.13 -84.91l34.9 63.42 0 -64.02c0,-4.16 0.75,-7.26 2.23,-9.34 1.48,-2.08 3.49,-3.13 6.03,-3.13 2.61,0 4.66,1.02 6.18,3.1 1.5,2.08 2.26,5.21 2.26,9.37l0 84.63c0,9.45 -3.26,14.16 -9.79,14.16 -1.63,0 -3.09,-0.28 -4.41,-0.85 -1.29,-0.55 -2.52,-1.46 -3.67,-2.68 -1.13,-1.21 -2.19,-2.66 -3.17,-4.29 -0.98,-1.63 -1.96,-3.3 -2.94,-5.03l-34.05 -62.66 0 63.03c0,4.11 -0.79,7.22 -2.37,9.32 -1.59,2.11 -3.64,3.16 -6.12,3.16 -2.57,0 -4.63,-1.05 -6.18,-3.18 -1.54,-2.13 -2.31,-5.24 -2.31,-9.3l0 -83c0,-3.53 0.33,-6.29 0.98,-8.29 0.77,-2.21 2.04,-4.01 3.84,-5.41 1.79,-1.38 3.73,-2.08 5.82,-2.08 1.63,0 3.01,0.32 4.17,0.95 1.17,0.62 2.2,1.5 3.07,2.58 0.88,1.08 1.76,2.45 2.67,4.18 0.92,1.71 1.88,3.49 2.86,5.36zm82.74 -11.25l23.66 0c6.16,0 11.44,0.68 15.84,2.06 4.41,1.38 8.39,3.93 11.98,7.69 9.33,9.6 14.01,24.18 14.01,43.77 0,6.46 -0.46,12.35 -1.4,17.69 -0.94,5.33 -2.4,10.14 -4.34,14.43 -1.96,4.28 -4.47,8.12 -7.54,11.47 -2.4,2.61 -5.03,4.69 -7.89,6.24 -2.83,1.58 -5.9,2.68 -9.2,3.31 -3.28,0.62 -6.97,0.95 -11.08,0.95l-23.67 0c-3.3,0 -5.8,-0.6 -7.47,-1.8 -1.67,-1.21 -2.76,-2.88 -3.26,-5.06 -0.52,-2.18 -0.77,-5.01 -0.77,-8.47l0 -78.92c0,-4.69 0.88,-8.09 2.63,-10.2 1.75,-2.1 4.59,-3.16 8.5,-3.16zm7.03 17.24l0 73.06 13.75 0c3.03,0 5.39,-0.1 7.1,-0.3 1.71,-0.2 3.48,-0.68 5.32,-1.45 1.84,-0.81 3.42,-1.91 4.76,-3.31 6.07,-6.17 9.12,-16.79 9.12,-31.87 0,-10.62 -1.34,-18.59 -4.01,-23.88 -2.67,-5.28 -5.97,-8.64 -9.87,-10.09 -3.92,-1.43 -8.64,-2.16 -14.19,-2.16l-11.98 0zm92.19 -5.86l0 78.32 36.81 0c2.92,0 5.18,0.85 6.74,2.58 1.59,1.7 2.36,3.86 2.36,6.44 0,2.65 -0.77,4.78 -2.31,6.44 -1.55,1.62 -3.82,2.45 -6.79,2.45l-43.85 0c-3.94,0 -6.8,-1.05 -8.53,-3.16 -1.74,-2.1 -2.59,-5.51 -2.59,-10.19l0 -82.88c0,-4.38 0.83,-7.69 2.48,-9.9 1.65,-2.2 3.82,-3.3 6.51,-3.3 2.72,0 4.93,1.07 6.62,3.25 1.69,2.18 2.55,5.52 2.55,9.95zm62.07 84.78l0 -34.12 -21.9 -40.74c-1.92,-3.68 -3.27,-6.54 -4.07,-8.59 -0.79,-2.06 -1.19,-3.84 -1.19,-5.36 0,-2.48 0.82,-4.64 2.42,-6.47 1.61,-1.8 3.59,-2.7 5.97,-2.7 2.49,0 4.36,0.85 5.66,2.53 1.27,1.68 3.19,5.06 5.76,10.09l16.76 32.65 16.95 -32.65c1,-2 1.85,-3.7 2.56,-5.06 0.69,-1.38 1.44,-2.65 2.28,-3.86 0.85,-1.2 1.77,-2.13 2.79,-2.75 1.03,-0.63 2.26,-0.95 3.74,-0.95 2.27,0 4.17,0.9 5.7,2.68 1.54,1.78 2.29,3.85 2.29,6.19 0,1.92 -0.37,3.83 -1.14,5.73 -0.78,1.91 -2.11,4.56 -3.99,7.92l-22.44 41.34 0 34.12c0,4.44 -0.85,7.77 -2.56,9.97 -1.71,2.21 -3.91,3.31 -6.54,3.31 -2.69,0 -4.88,-1.08 -6.55,-3.26 -1.67,-2.18 -2.5,-5.53 -2.5,-10.02zm107.36 -84.78l0 78.32 36.81 0c2.92,0 5.18,0.85 6.74,2.58 1.59,1.7 2.36,3.86 2.36,6.44 0,2.65 -0.77,4.78 -2.31,6.44 -1.55,1.62 -3.82,2.45 -6.79,2.45l-43.85 0c-3.94,0 -6.8,-1.05 -8.53,-3.16 -1.74,-2.1 -2.59,-5.51 -2.59,-10.19l0 -82.88c0,-4.38 0.83,-7.69 2.48,-9.9 1.65,-2.2 3.82,-3.3 6.51,-3.3 2.72,0 4.93,1.07 6.62,3.25 1.69,2.18 2.55,5.52 2.55,9.95zm58.58 84.78l0 -84.78c0,-4.38 0.84,-7.69 2.51,-9.9 1.66,-2.2 3.84,-3.3 6.49,-3.3 2.71,0 4.92,1.07 6.61,3.25 1.69,2.18 2.55,5.52 2.55,9.95l0 84.78c0,4.44 -0.86,7.77 -2.55,9.97 -1.69,2.21 -3.9,3.31 -6.61,3.31 -2.61,0 -4.76,-1.1 -6.45,-3.33 -1.69,-2.23 -2.55,-5.54 -2.55,-9.95zm120.34 -32.29l0 20.62c0,2.73 -0.23,4.93 -0.67,6.56 -0.45,1.63 -1.27,3.13 -2.48,4.43 -1.21,1.33 -2.73,2.61 -4.61,3.84 -5.43,3.51 -10.65,6.09 -15.65,7.69 -5.01,1.63 -10.48,2.43 -16.39,2.43 -6.91,0 -13.17,-1.28 -18.84,-3.81 -5.66,-2.55 -10.5,-6.24 -14.49,-11.1 -4.01,-4.83 -7.08,-10.69 -9.2,-17.61 -2.15,-6.89 -3.22,-14.61 -3.22,-23.12 0,-8.35 1.05,-16.01 3.11,-22.95 2.09,-6.97 5.16,-12.86 9.19,-17.69 4.02,-4.86 8.95,-8.57 14.73,-11.13 5.78,-2.58 12.36,-3.85 19.68,-3.85 6.05,0 11.38,0.97 16.03,2.9 4.65,1.93 8.41,4.36 11.31,7.29 2.9,2.93 5.07,6.04 6.56,9.32 1.46,3.28 2.19,6.19 2.19,8.75 0,2.73 -0.84,5.06 -2.53,6.99 -1.71,1.95 -3.73,2.9 -6.09,2.9 -1.32,0 -2.57,-0.37 -3.76,-1.1 -1.21,-0.73 -2.21,-1.75 -3.03,-3.08 -2.25,-4.21 -4.13,-7.37 -5.69,-9.52 -1.55,-2.16 -3.63,-3.99 -6.26,-5.44 -2.63,-1.48 -5.99,-2.2 -10.06,-2.2 -4.2,0 -7.96,0.87 -11.25,2.6 -3.3,1.73 -6.14,4.26 -8.48,7.57 -2.34,3.28 -4.13,7.34 -5.38,12.12 -1.23,4.82 -1.86,10.13 -1.86,15.94 0,12.63 2.42,22.32 7.24,29.14 4.84,6.79 11.57,10.19 20.21,10.19 4.21,0 8.16,-0.65 11.83,-1.98 3.69,-1.32 7.43,-3.2 11.23,-5.66l0 -17.46 -14.07 0c-3.38,0 -5.95,-0.6 -7.68,-1.83 -1.73,-1.23 -2.59,-3.31 -2.59,-6.24 0,-2.4 0.73,-4.38 2.17,-5.94 1.44,-1.57 3.43,-2.35 5.91,-2.35l20.6 0c2.52,0 4.67,0.27 6.43,0.8 1.75,0.55 3.17,1.76 4.23,3.61 1.09,1.85 1.63,4.63 1.63,8.37zm35.59 -52.49l0 30.84 39.19 0 0 -30.84c0,-4.38 0.84,-7.69 2.49,-9.9 1.65,-2.2 3.82,-3.3 6.51,-3.3 2.71,0 4.92,1.07 6.61,3.25 1.7,2.18 2.55,5.52 2.55,9.95l0 84.78c0,4.44 -0.85,7.77 -2.57,9.97 -1.71,2.21 -3.92,3.31 -6.59,3.31 -2.74,0 -4.93,-1.1 -6.55,-3.33 -1.63,-2.23 -2.45,-5.54 -2.45,-9.95l0 -36.18 -39.19 0 0 36.18c0,4.46 -0.86,7.77 -2.57,9.97 -1.71,2.21 -3.92,3.31 -6.59,3.31 -2.74,0 -4.93,-1.1 -6.56,-3.33 -1.63,-2.23 -2.44,-5.54 -2.44,-9.95l0 -84.78c0,-4.38 0.81,-7.69 2.42,-9.9 1.61,-2.2 3.8,-3.3 6.58,-3.3 2.71,0 4.92,1.07 6.61,3.25 1.69,2.18 2.55,5.52 2.55,9.95zm135.07 6.61l-19.8 0 0 78.17c0,4.49 -0.84,7.84 -2.51,10.02 -1.67,2.18 -3.84,3.26 -6.49,3.26 -2.67,0 -4.86,-1.1 -6.55,-3.31 -1.69,-2.2 -2.55,-5.53 -2.55,-9.97l0 -78.17 -19.8 0c-3.11,0 -5.41,-0.82 -6.91,-2.45 -1.53,-1.66 -2.28,-3.81 -2.28,-6.52 0,-2.78 0.8,-4.98 2.36,-6.58 1.57,-1.63 3.84,-2.44 6.83,-2.44l57.7 0c3.16,0 5.47,0.83 7.02,2.51 1.52,1.65 2.29,3.83 2.29,6.51 0,2.71 -0.79,4.86 -2.34,6.52 -1.54,1.63 -3.86,2.45 -6.97,2.45zm31.79 20.32l-12.67 0 -3.23 -20.19 0 -18.12 18.78 0 0 18.12 -2.88 20.19z" class="fil3"/>
  <path d="M12609.71 13251.85l28.84 -7.43c14.43,83.8 45.03,151.31 91.99,203.02 46.97,51.54 101.14,77.32 162.7,77.32 32.19,0 59.45,-10.44 81.61,-31.31 22.16,-20.87 33.24,-46.33 33.24,-76.69 0,-55.18 -24.8,-105.46 -74.22,-150.52 -25.85,32.1 -56.28,55.34 -91.81,69.88l-36.06 -76.84c79.68,-21.03 119.6,-55.34 119.6,-102.77 0,-18.34 -5.98,-31.94 -18.11,-41.11 -11.96,-9.02 -30.08,-13.6 -54.53,-13.6 -36.06,0 -74.05,9.8 -113.97,29.25l-35.01 -76.53c33.07,-14.23 67.19,-21.34 102.55,-21.34 46.78,0 84.6,13.59 113.62,40.95 29.02,27.35 43.62,62.93 43.62,106.88 0,18.82 -4.04,35.58 -12.31,49.97l16 13.44c45.56,-39.22 89.18,-58.82 130.69,-58.82 3.52,0 8.79,0.32 16,0.95 16.19,-75.42 58.75,-113.05 127.88,-113.05 44.85,0 78.62,16.6 101.13,49.64 22.51,33.05 33.77,82.54 33.77,148.63 0,67.04 -14.07,120.17 -42.21,159.54 -28.14,39.37 -66.14,59.14 -113.98,59.14 -33.24,0 -56.98,-9.65 -71.06,-28.78 -14.07,-19.13 -21.1,-51.23 -21.1,-96.29l0 -34.31c0,-42.22 -12.49,-63.41 -37.64,-63.41 -21.29,0 -47.67,9.8 -79.33,29.57 44.33,53.44 66.49,104.83 66.49,154.32 0,40.79 -14.78,73.68 -44.5,98.82 -29.73,25.14 -68.95,37.79 -117.32,37.79 -78.62,0 -147.04,-31.94 -205.26,-95.82 -58.22,-64.03 -91.99,-144.2 -101.31,-240.49zm530.3 -56.92c18.12,8.38 27.26,28.46 27.26,60.24l-0.53 54.08 0 29.25c0,55.49 19.35,83.32 58.22,83.32 32.54,0 59.81,-13.6 81.44,-40.95 21.64,-27.35 32.36,-61.66 32.36,-103.09 0,-40.16 -9.85,-72.73 -29.55,-97.87 -19.87,-25.14 -45.38,-37.79 -76.51,-37.79 -42.91,0 -73.87,17.55 -92.69,52.81zm-274.74 -234.8l25.86 -17.24c31.83,37.48 70.18,56.13 114.85,56.13 41.87,0 78.1,-18.65 108.7,-56.13l71.06 53.29c-45.91,43.8 -92.52,65.77 -139.65,65.77 -71.41,0 -131.74,-33.99 -180.82,-101.82zm151.62 -92.34l54 49.17 -54 47.28 -53.65 -50.6 53.65 -45.85z" class="fil4"/>
  <path d="M12354.91 13456.67l-11.87 -26.98c4.76,-2.04 8.1,-4.37 10.06,-6.96 3.15,-4.2 3.69,-9.08 1.69,-14.62 -1.49,-4.12 -3.71,-6.99 -6.68,-8.61 -2.96,-1.59 -5.86,-1.97 -8.7,-1.14 -2.69,0.78 -4.74,2.54 -6.1,5.3 -1.36,2.76 -1.6,8.27 -0.68,16.59 1.41,13.61 0.48,23.89 -2.83,30.83 -3.29,6.99 -9,11.67 -17.15,14.05 -5.36,1.57 -10.93,1.65 -16.69,0.25 -5.77,-1.4 -11.01,-4.5 -15.78,-9.3 -4.74,-4.81 -8.87,-12.09 -12.4,-21.84 -4.32,-11.96 -5.15,-21.82 -2.47,-29.55 2.68,-7.72 9.21,-13.75 19.57,-18.1l11.63 26.75c-4.42,2.09 -7.29,4.62 -8.58,7.57 -1.28,2.93 -1.18,6.45 0.29,10.52 1.22,3.38 2.91,5.69 5.13,6.92 2.19,1.24 4.44,1.52 6.71,0.86 1.65,-0.48 2.88,-1.61 3.71,-3.4 0.89,-1.78 0.98,-5.37 0.32,-10.84 -1.54,-13.53 -1.73,-23.48 -0.6,-29.86 1.12,-6.38 3.51,-11.49 7.22,-15.32 3.69,-3.83 8.37,-6.59 14.07,-8.26 6.67,-1.95 13.44,-2.07 20.26,-0.4 6.85,1.67 12.8,5.07 17.87,10.19 5.06,5.1 9.23,12.2 12.51,21.27 5.76,15.91 6.35,27.94 1.72,36.06 -4.59,8.14 -12,14.14 -22.23,18.02zm-107.46 -88.37l-3.92 -28.67 59.31 -17.04 -62.78 -8.36 -3.9 -28.6 58.65 -21.83 -62.13 -3.63 -3.9 -28.53 111.66 9.52 4.04 29.6 -66.1 24.69 70.77 9.51 4.04 29.61 -105.74 33.73zm84.9 -221.85l-5.36 34.32 17.16 6.99 -4.81 30.78 -102.73 -50.34 5.13 -32.85 114.2 -22.96 -4.93 31.53 -18.66 2.53zm-24.44 3.35l-40.68 5.85 37.32 15.65 3.36 -21.5zm-56.71 -79.68l14.49 -37.84 68.6 4.89 -57.43 -34.05 14.45 -37.72 103.56 32.06 -9 23.5 -78.97 -24.45 71.99 42.68 -8.15 21.26 -85.92 -6.28 78.96 24.45 -9.02 23.56 -103.56 -32.06zm57.23 -137.33l15.92 -26.93 96.71 46.23 -15.92 26.92 -96.71 -46.22zm57.18 -92.74l21.79 -25.08 77.3 26.16 -47.17 -60.82 21.16 -24.35 61.29 89.41 -22.58 25.98 -111.79 -31.3zm95.18 -98.93l24.4 -21.18 76.09 70.83 -24.4 21.18 -76.09 -70.83zm47.27 -40.7l29 -18.25 65.41 45.33 -25.33 -70.57 28.16 -17.72 29.53 101.61 -30.04 18.91 -96.73 -59.31zm124.21 -75.07l82.84 -33.16 9.51 19.21 -51.86 20.75 7.09 14.31 48.11 -19.26 9.08 18.35 -48.11 19.25 8.78 17.72 53.37 -21.36 10.1 20.38 -84.36 33.76 -44.55 -89.95zm118.3 -46.36l32.68 -7.88 10.72 35.94 23.57 -44.2 43.46 -10.46 -27.86 45.16 57.93 49.53 -40.28 9.7 -33.95 -33.76 -12.16 19.97 6.92 23.23 -32.68 7.87 -28.35 -95.1zm218.93 49.09l-38.47 2.42 -4.03 16.55 -34.5 2.16 33.42 -100.8 36.81 -2.31 48.73 95.64 -35.34 2.22 -6.62 -15.88zm-8.73 -20.8l-14.83 -34.55 -9.26 36.06 24.09 -1.51zm73.41 -61.78l31.45 2.97 34.67 58.04 6.34 -54.17 31.73 3 -11.45 97.92 -31.73 -2.99 -34.52 -57.62 -6.29 53.76 -31.65 -2.99 11.45 -97.92zm181.95 116.98l-36.67 -10.71 -10.64 13.98 -32.88 -9.61 72.99 -82.21 35.09 10.25 5.33 105.09 -33.69 -9.84 0.47 -16.95zm0.58 -22.23l0.64 -37.03 -23.61 30.32 22.97 6.71zm96.6 -32.28l27.66 13.79 6.69 65.61 29.37 -47.64 27.91 13.9 -53.1 86.12 -27.91 -13.9 -6.73 -65.17 -29.15 47.28 -27.84 -13.87 53.1 -86.12zm129.72 68.72l37.95 29.66c7.47,5.84 12.63,11.48 15.49,16.91 2.83,5.42 4.11,11.02 3.82,16.77 -0.31,5.77 -1.97,11.43 -4.99,17.03 -3.03,5.59 -6.99,10.91 -11.9,15.98 -7.68,7.94 -14.63,13.32 -20.89,16.12 -6.23,2.81 -12.57,4.3 -18.99,4.44 -6.42,0.18 -12.16,-0.85 -17.21,-3.06 -6.91,-3.03 -12.64,-6.33 -17.19,-9.87l-37.95 -29.66 71.86 -74.32zm9.26 36.8l-39.25 40.59 6.25 4.89c5.35,4.18 9.65,6.62 12.94,7.31 3.27,0.7 6.85,0.22 10.7,-1.42 3.83,-1.66 8.63,-5.47 14.38,-11.42 7.62,-7.87 11.39,-14.37 11.36,-19.5 -0.06,-5.15 -3.39,-10.3 -10.01,-15.47l-6.37 -4.98zm66.66 118.51l20.56 22.36c-3.82,3.27 -6.2,6.41 -7.17,9.42 -1.55,4.87 -0.39,9.66 3.42,14.37 2.83,3.51 5.93,5.62 9.31,6.34 3.37,0.69 6.25,0.25 8.67,-1.33 2.29,-1.5 3.63,-3.73 3.98,-6.74 0.34,-3 -1.33,-8.31 -5.06,-15.96 -6.02,-12.56 -8.67,-22.59 -7.91,-30.12 0.73,-7.56 4.55,-13.59 11.48,-18.12 4.56,-2.98 9.83,-4.61 15.8,-4.88 5.96,-0.26 12.01,1.22 18.2,4.47 6.16,3.25 12.59,9.03 19.29,17.32 8.23,10.18 12.41,19.33 12.52,27.42 0.1,8.09 -4.04,15.64 -12.4,22.65l-20.25 -22.22c3.48,-3.21 5.34,-6.41 5.56,-9.58 0.2,-3.13 -1.09,-6.45 -3.9,-9.92 -2.32,-2.88 -4.72,-4.6 -7.25,-5.15 -2.51,-0.57 -4.75,-0.22 -6.68,1.05 -1.41,0.91 -2.19,2.33 -2.36,4.26 -0.23,1.93 0.91,5.38 3.42,10.4 6.12,12.44 9.72,21.85 10.84,28.23 1.12,6.38 0.6,11.9 -1.61,16.57 -2.19,4.67 -5.69,8.6 -10.54,11.76 -5.67,3.71 -12.07,5.7 -19.13,6.01 -7.09,0.32 -13.91,-1.26 -20.49,-4.72 -6.57,-3.45 -12.98,-9.04 -19.22,-16.75 -10.94,-13.54 -15.64,-24.81 -14.03,-33.82 1.57,-9.02 6.55,-16.78 14.95,-23.32zm109.81 147.99l4.4 27.57c-8.38,1.54 -15.99,1.62 -22.86,0.25 -6.87,-1.37 -12.94,-4.11 -18.19,-8.21 -5.27,-4.09 -9.96,-10.14 -14.1,-18.12 -5.03,-9.7 -7.58,-18.3 -7.63,-25.74 -0.05,-7.46 2.71,-15.1 8.3,-22.88 5.6,-7.76 14.54,-14.23 26.85,-19.4 16.44,-6.89 31.12,-8.26 44,-4.1 12.9,4.15 23.08,13.42 30.53,27.78 5.83,11.24 7.89,21.12 6.17,29.69 -1.72,8.56 -7.01,16.59 -15.86,24.1l-18.67 -21.82c2.59,-2.12 4.35,-3.95 5.27,-5.47 1.54,-2.52 2.36,-5.17 2.48,-7.92 0.1,-2.78 -0.57,-5.53 -2,-8.3 -3.23,-6.23 -8.52,-9.86 -15.84,-10.84 -5.46,-0.77 -12.64,0.7 -21.53,4.43 -11.03,4.62 -17.78,9.29 -20.32,14 -2.52,4.73 -2.37,9.8 0.44,15.22 2.74,5.28 6.45,8.58 11.16,9.9 4.68,1.32 10.48,1.27 17.4,-0.14zm82.46 27.41l9.33 29.24 -36.85 9.5 10.2 31.98 36.85 -9.5 9.37 29.37 -105.29 27.14 -9.37 -29.37 42.58 -10.98 -10.2 -31.97 -42.58 10.97 -9.33 -29.24 105.29 -27.14zm-22.26 130.68c17.81,-1.4 32.12,1.98 42.89,10.11 10.81,8.14 16.97,20.18 18.52,36.1 1.59,16.33 -2.07,29.29 -10.96,38.9 -8.87,9.58 -22.11,15.09 -39.66,16.47 -12.76,1 -23.41,-0.12 -31.94,-3.34 -8.53,-3.22 -15.43,-8.29 -20.68,-15.22 -5.26,-6.95 -8.41,-15.84 -9.47,-26.73 -1.07,-11.05 -0.01,-20.36 3.2,-27.93 3.23,-7.55 8.86,-13.91 16.9,-19.1 8.05,-5.17 18.45,-8.26 31.2,-9.26zm2.8 30.34c-11.02,0.86 -18.75,3.31 -23.21,7.37 -4.45,4.05 -6.37,9.27 -5.76,15.59 0.64,6.51 3.49,11.37 8.54,14.57 5.07,3.19 13.7,4.33 25.9,3.37 10.29,-0.81 17.6,-3.27 21.99,-7.37 4.36,-4.09 6.23,-9.33 5.61,-15.72 -0.59,-6.1 -3.46,-10.82 -8.65,-14.14 -5.16,-3.33 -13.31,-4.55 -24.42,-3.67zm3.66 94.08c17.75,1.96 30.96,7.94 39.62,17.9 8.68,9.99 11.92,22.92 9.76,38.78 -2.22,16.26 -8.8,28.27 -19.72,36 -10.89,7.71 -25.11,10.62 -42.6,8.69 -12.71,-1.4 -22.87,-4.49 -30.47,-9.23 -7.6,-4.74 -13.17,-10.99 -16.71,-18.75 -3.54,-7.78 -4.56,-17.06 -3.07,-27.92 1.5,-11.01 4.69,-19.92 9.58,-26.72 4.91,-6.78 11.88,-11.95 20.95,-15.52 9.07,-3.55 19.96,-4.64 32.66,-3.23zm-4.28 30.2c-10.98,-1.22 -19.1,-0.26 -24.41,2.87 -5.29,3.13 -8.37,7.87 -9.23,14.18 -0.89,6.48 0.78,11.77 4.98,15.84 4.22,4.07 12.4,6.8 24.55,8.14 10.25,1.13 17.97,0.09 23.22,-3.1 5.21,-3.19 8.25,-7.96 9.12,-14.33 0.83,-6.08 -0.88,-11.23 -5.19,-15.45 -4.28,-4.21 -11.97,-6.93 -23.04,-8.15zm33.64 111.78l-10.46 28.95 -78.51 -22.93 -16.32 45.16 -25.66 -7.5 26.78 -74.11 104.17 30.43z" class="fil3"/>
 </g>
</svg>