<?xml version="1.0" encoding="UTF-8"?>
<svg version="1.1" xmlns="http://www.w3.org/2000/svg" width="108" height="107">
<path d="M0 0 C0.17426756 3.91610484 0.28084155 7.83121497 0.375 11.75 C0.42527344 12.86117188 0.47554687 13.97234375 0.52734375 15.1171875 C0.58282737 18.187281 0.57121262 20.98171595 0 24 C-2.88671875 26.62109375 -2.88671875 26.62109375 -6 28 C-13.83523163 36.28295915 -14.38096941 46.1948967 -14.21875 56.97265625 C-13.93566974 64.54682255 -11.80471278 71.06476657 -7 77 C-2.4773441 81.08142118 0.79146353 82.32364536 6.9453125 82.2109375 C11.50278901 81.74305968 14.30797324 79.62611945 17.625 76.625 C23.94858799 68.33680215 25.01309957 57.03334755 24 47 C22.88693814 40.28959828 21.49336223 34.28630851 17 29 C16.13761719 28.55140625 15.27523437 28.1028125 14.38671875 27.640625 C10.39178961 23.22070339 11.48084087 17.96650958 11.6875 12.25 C11.71005859 11.07566406 11.73261719 9.90132812 11.75585938 8.69140625 C11.8147704 5.79298363 11.89698369 2.89713573 12 0 C25.19182702 0.87965094 35.43145248 4.52810448 45 14 C54.98594065 25.54084491 59.68360129 38.88515524 59.2421875 54.1875 C57.93226416 69.39951295 54.08068825 83.44775597 42.375 94.10546875 C29.25247832 104.57326976 13.62930969 108.45816708 -3 107 C-17.12848558 104.88072716 -28.17845062 99.52308862 -38 89 C-47.91971046 75.53753581 -50.576457 59.89828454 -48.5703125 43.484375 C-46.08285789 29.78801998 -40.23096899 17.54894654 -29 9 C-19.82249236 3.19934794 -10.89548944 -0.11687653 0 0 Z " fill="#FFFFFF" transform="translate(49,0)"/>
</svg>
